<svg width="29" height="25" viewBox="0 0 29 25" fill="none" xmlns="http://www.w3.org/2000/svg">
<path d="M26.1011 2.49432C24.594 0.997728 22.5844 0.124716 20.4493 0.124716C18.3142 0.124716 16.3047 0.997728 14.7976 2.49432L14.4208 2.86847L13.9184 2.3696C12.4113 0.873012 10.4017 0 8.26661 0C6.1315 0 4.12197 0.873012 2.61483 2.3696C1.10769 3.8662 0.228516 5.86165 0.228516 7.98182C0.228516 10.102 1.10769 12.0975 2.61483 13.594L13.5416 24.4443C13.7928 24.6938 14.044 24.8185 14.4208 24.8185C14.7975 24.8185 15.0487 24.6938 15.2999 24.4443L26.2267 13.594C27.7339 12.0975 28.613 10.102 28.613 7.98182C28.613 5.86165 27.7338 3.99091 26.1011 2.49432Z" fill="#00B5FF"/>
<mask id="mask0_75_4584" style="mask-type:alpha" maskUnits="userSpaceOnUse" x="0" y="0" width="29" height="25">
<path d="M26.1011 2.49432C24.594 0.997728 22.5844 0.124716 20.4493 0.124716C18.3142 0.124716 16.3047 0.997728 14.7976 2.49432L14.4208 2.86847L13.9184 2.3696C12.4113 0.873012 10.4017 0 8.26661 0C6.1315 0 4.12197 0.873012 2.61483 2.3696C1.10769 3.8662 0.228516 5.86165 0.228516 7.98182C0.228516 10.102 1.10769 12.0975 2.61483 13.594L13.5416 24.4443C13.7928 24.6938 14.044 24.8185 14.4208 24.8185C14.7975 24.8185 15.0487 24.6938 15.2999 24.4443L26.2267 13.594C27.7339 12.0975 28.613 10.102 28.613 7.98182C28.613 5.86165 27.7338 3.99091 26.1011 2.49432Z" fill="#00B5FF"/>
</mask>
<g mask="url(#mask0_75_4584)">
<rect x="-0.707031" y="10.3227" width="30.0675" height="15.0844" fill="#FFBC00"/>
</g>
</svg>
