<svg width="163" height="264" viewBox="0 0 163 264" fill="none" xmlns="http://www.w3.org/2000/svg">
<g clip-path="url(#clip0_505_828)">
<path d="M1.81125 237.582C4.60128 235.343 7.84751 233.744 11.3212 232.898C14.7949 232.052 18.4115 231.98 21.9162 232.686C24.2507 233.152 26.6951 233.211 29.0739 233.463C27.8231 231.648 26.2216 230.104 24.364 228.921C19.9664 226.128 16.838 221.719 15.6513 216.64C15.5819 215.372 15.7813 214.103 16.2362 212.918C16.6912 211.732 17.3915 210.657 18.2911 209.761C20.0609 208.033 21.9542 210.387 23.1235 211.941C26.973 216.886 31.6391 221.557 34.1547 227.158C37.409 234.57 43.5833 238.176 49.3661 242.618C41.9691 232.448 37.9322 220.216 37.8203 207.633C37.8394 204.711 36.4291 203.929 33.9433 203.633C28.051 202.889 22.6902 199.844 19.0262 195.162C15.3622 190.48 13.6911 184.538 14.3763 178.629C14.5133 177.341 15.3622 175.434 16.3075 175.161C17.0055 175.129 17.7025 175.242 18.3543 175.494C19.0062 175.746 19.5985 176.131 20.0938 176.625C22.9728 179.114 25.6572 181.839 28.4065 184.477L28.9614 184.889L28.6223 184.264C28.4907 183.274 28.282 182.296 27.998 181.338C25.9951 175.141 25.8594 168.49 27.6079 162.216C28.175 160.874 28.9744 159.643 29.9691 158.579C30.9293 159.316 32.2343 159.819 32.8287 160.746C37.0893 166.952 39.868 174.055 40.95 181.509C42.2119 177.404 43.7792 173.4 45.6388 169.53C48.8099 163.977 50.1922 157.579 49.5969 151.21C49.6839 147.067 49.9828 142.932 50.4925 138.82C50.4991 137.81 49.7814 136.044 49.0537 135.824C34.9057 131.607 29.3493 118.746 21.3536 108.339C19.6305 106.18 20.9741 104.04 23.9113 104.167C26.3718 104.224 28.796 104.773 31.0421 105.781C39.604 110.106 46.7384 116.814 51.5898 125.099C52.7179 119.822 53.3931 114.928 54.8174 110.276C56.7453 104.037 59.5926 98.2119 65.3856 94.4901C68.0776 92.7675 70.3477 93.2335 70.8881 95.8794C71.6616 99.0999 71.9509 102.418 71.7461 105.724C71.2844 110.377 69.8936 114.89 67.6564 118.994C65.4193 123.098 62.3814 126.71 58.7232 129.614C57.0245 130.924 55.6972 132.655 54.8732 134.638C52.8217 141.169 52.1417 148.054 52.8757 154.862C57.4142 149.499 61.5215 144.477 65.8415 139.736C73.7771 131.19 82.9476 123.885 93.0469 118.065C94.2382 117.498 95.2268 116.578 95.8787 115.43C96.5306 114.281 96.8144 112.959 96.6916 111.644C96.5235 107.819 96.7416 103.975 96.6378 100.15C96.4411 90.8469 95.5563 81.8184 86.7151 76.0893C86.4446 75.8902 86.2073 75.6493 86.0121 75.3758C81.4451 70.2435 78.9702 63.5794 79.0781 56.7049C79.0977 53.6974 81.0348 52.6144 83.7072 53.8993C84.5461 54.4266 85.3195 55.0518 86.0112 55.7619C91.9385 61.0638 97.1117 66.8979 99.2292 74.3448C101.662 70.8266 104.313 67.4644 107.165 64.278C108.396 63.04 111.054 63.2507 113.072 62.8127C113.698 64.5641 113.998 66.4153 113.959 68.2751C112.193 75.9545 108.655 82.5052 101.231 86.3238C100.651 86.7222 100.173 87.2511 99.8336 87.8682C99.4944 88.4852 99.3042 89.1733 99.2782 89.8772C99.402 97.2037 99.7833 104.51 100.186 111.817C100.184 112.182 101.702 112.923 101.895 112.774C106.704 108.723 112.196 105.193 115.98 100.341C122.966 91.3205 122.219 80.8749 118.941 70.4773C114.256 55.6021 98.8584 39.0889 80.3387 40.9661C78.2689 41.101 76.2826 41.8343 74.6204 43.0772C71.5012 45.5248 68.0046 47.4467 64.2681 48.7672C57.7553 50.554 51.1529 51.9953 44.4886 53.0853C43.0284 53.3766 40.584 53.3177 40.0319 52.4763C39.6398 51.696 39.4101 50.8441 39.3567 49.9722C39.3034 49.1003 39.4277 48.2266 39.7218 47.4043C40.7303 44.8466 42.2897 42.5433 44.2889 40.6588C46.2881 38.7743 48.6779 37.3548 51.2876 36.5018C56.9209 34.2614 62.6632 35.0506 68.4493 35.6898L68.7281 35.6917L68.4493 35.6898L63.2572 32.7559C59.8259 30.8838 56.8836 28.2279 54.6689 25.0034C52.4543 21.7789 51.0297 18.0768 50.5107 14.1975C49.69 8.4992 52.4473 6.62668 57.5131 9.19466C61.2833 11 64.8616 13.1826 68.1935 15.7091C74.5937 20.8422 79.6579 26.9549 78.5695 36.0136C78.2982 38.1601 79.6503 37.997 81.0015 37.9843C95.4354 37.8206 106.308 44.4651 114.792 55.6915C116.323 57.6994 117.81 59.75 119.298 61.7791C119.303 61.0172 119.207 60.258 119.013 59.5215C114.901 48.7533 111.221 37.6226 102.245 29.4866C95.38 23.2763 93.5264 14.8214 92.6821 6.15832C92.521 4.54606 94.2055 2.75246 95.0316 1.03921C96.4569 1.71509 97.7916 2.56827 99.0039 3.57858C105.729 10.6143 110.841 19.0346 113.984 28.2526C114.875 26.4109 115.615 24.74 116.462 23.1128C118.778 18.2588 122.829 14.452 127.812 12.4453C132.585 10.5644 135.724 12.6472 134.558 17.194C133.137 22.7891 131.118 28.2141 128.533 33.3744C127.556 35.4258 126.086 37.2021 124.254 38.5438C122.423 39.8855 120.287 40.7505 118.039 41.0613C114.777 41.4483 115.093 42.3526 116.344 44.5305C117.56 46.5089 118.546 48.62 119.284 50.8227C120.928 55.9901 122.269 61.2497 123.299 66.5743C123.819 70.9173 124.07 75.2883 124.05 79.6623C125.859 77.7147 127.435 75.562 128.745 73.248C134.547 64.9504 140.172 64.0418 147.067 65.5046C150.879 66.3243 151.34 68.003 149.175 71.1254C143.463 78.9724 136.751 85.481 126.597 86.9401C125.073 87.1665 124.45 87.3988 124.224 89.1804C123.824 93.0038 122.641 96.7034 120.749 100.048C118.856 103.392 116.294 106.309 113.224 108.615C106.522 113.727 99.4569 118.408 92.371 123.066C84.9891 127.617 78.3005 133.21 72.5115 139.672C75.6161 139.872 78.7335 139.654 81.7802 139.024C89.9848 137.122 98.0437 134.532 106.331 133.082C108.535 132.878 110.621 131.996 112.305 130.557C113.988 129.118 115.186 127.192 115.734 125.045C117.384 120.193 119.489 115.51 122.023 111.057C123.499 108.635 125.44 106.53 127.733 104.864C130.026 103.197 132.625 102.002 135.382 101.348C139.077 100.341 140.825 102.006 140.222 105.676C140.019 106.649 139.733 107.603 139.367 108.528C136.183 117.396 130.501 125.149 123.009 130.849L128.234 131.957C134.381 133.286 140.136 135.365 143.659 140.973C144.186 141.728 144.546 142.586 144.714 143.492C144.882 144.397 144.854 145.328 144.633 146.222C143.998 146.925 143.216 147.479 142.342 147.845C141.469 148.21 140.525 148.378 139.58 148.337C135.095 148.251 130.673 147.275 126.569 145.463C122.465 143.651 118.761 141.041 115.672 137.783C114.79 136.703 113.603 135.915 112.266 135.523C110.929 135.131 109.505 135.153 108.181 135.586C100.211 137.683 92.2407 139.779 84.2077 141.682C80.0624 142.643 75.9151 143.926 71.508 142.286C70.8135 142.188 70.1054 142.261 69.4458 142.5C68.7862 142.74 68.1952 143.137 67.7246 143.658C62.2502 151.142 56.2411 158.385 51.835 166.477C43.6794 181.073 40.3773 197.892 42.4079 214.494C43.0988 220.364 46.5951 230.14 49.6187 233.468C50.0202 231.086 50.4018 228.467 50.912 225.871C51.9377 222.074 51.497 218.028 49.6776 214.542C47.2532 210.124 46.3516 205.029 47.1128 200.046C47.7643 195.495 49.3142 191.316 53.3846 188.679C57.1745 186.298 59.8264 187.432 59.455 191.769C58.9866 197.037 58.186 202.269 57.0583 207.436C56.4374 210.568 55.2596 213.59 54.3389 216.656L55.3442 217.071C56.1692 215.529 57.0582 214.031 57.819 212.468C61.9268 204.073 68.2622 202.697 76.3467 202.771C78.3196 202.784 80.1588 203.569 78.4688 206.222C73.6339 214.29 67.9488 221.192 57.6275 222.112C56.9501 222.217 56.3053 222.475 55.7418 222.865C55.1783 223.256 54.7108 223.77 54.3745 224.368C50.7743 233.84 52.8706 241.244 60.6568 247.611C61.9326 248.677 63.305 249.62 64.7559 250.43C88.6042 263.476 111.862 261.865 134.176 246.951C142.102 241.93 148.238 234.525 151.706 225.797C153.43 221.276 153.588 216.808 150.589 213.029C146.59 207.998 142.074 203.306 137.622 198.68C136.834 197.837 134.925 197.846 133.552 197.859C127.226 197.818 120.896 198.442 114.614 198.165C108.332 197.888 102.427 195.787 99.4229 189.473C98.5133 187.555 96.7724 184.837 99.1647 183.026C100.996 182.174 103.066 181.982 105.023 182.484C111.9 183.582 118.71 184.958 125.329 186.204C124.175 182.308 123.018 178.885 122.204 175.443C122.168 174.891 122.264 174.34 122.484 173.833C122.704 173.327 123.04 172.88 123.467 172.529C124.026 172.168 125.61 172.736 126.335 173.386C132.732 179.013 138.978 184.747 139.453 194.159C139.57 195.155 140.008 196.085 140.701 196.81C145.279 201.781 149.944 206.666 154.672 211.724C153.999 203.126 152.854 194.526 148.83 186.744C146.013 181.291 142.874 175.964 137.665 172.342C127.994 165.534 117.113 163.486 105.549 164.249C105.106 164.341 104.687 164.522 104.316 164.782C103.946 165.042 103.632 165.375 103.395 165.76C99.9908 171.431 94.5051 174.059 88.6373 176.083C82.7695 178.107 77.3541 179.812 71.6599 181.515C70.2844 181.74 68.8851 181.782 67.4987 181.639C67.4212 180.08 67.6054 178.52 68.0434 177.023C71.6795 169.814 77.9894 164.318 85.6213 161.713C86.2446 161.502 86.8887 161.378 87.4907 161.145C88.0927 160.913 88.33 160.7 88.0502 160.848C84.3769 158.504 80.5527 156.266 76.9667 153.687C76.5395 153.233 76.2256 152.684 76.0506 152.086C75.8756 151.487 75.8444 150.856 75.9597 150.243C76.1144 149.535 77.7493 148.772 78.7789 148.736C82.5779 148.298 86.4159 148.323 90.2089 148.81C95.8843 149.986 101.448 151.891 103.7 158.351C103.979 158.783 104.349 159.149 104.785 159.423C105.22 159.697 105.71 159.872 106.221 159.935C109.177 160.341 112.179 160.447 115.158 160.724C126.11 161.805 136.082 165.157 144.136 173.093C143.93 171.803 143.746 170.534 143.518 169.244C142.72 165.753 142.724 162.125 143.53 158.636C144.337 155.146 145.925 151.886 148.174 149.102C150.098 146.773 151.706 146.869 152.461 149.388C155.844 159.01 155.707 169.522 152.075 179.053C151.578 180.101 151.332 181.251 151.358 182.412C151.384 183.572 151.681 184.71 152.225 185.735C156.704 196.076 159.165 206.705 157.182 218.142C155.752 226.261 152.368 233.908 147.322 240.42C152.171 236.8 156.827 233.092 161.228 229.082C163.882 226.65 167.695 224.032 168.165 221.006C168.633 218.324 165.481 214.909 163.763 211.912C158.95 203.545 158.768 195.252 164.161 187.102C165.461 185.112 166.875 181.985 169.655 183.206C171.088 183.839 171.903 187.023 172.147 189.13C172.897 195.795 173.261 202.5 173.794 209.593C175.155 206.138 177.635 203.242 180.836 201.37C184.038 199.497 187.774 198.757 191.446 199.267C192.818 199.383 195.152 199.85 195.298 200.538C195.436 202.058 195.031 203.578 194.155 204.827C188.785 212.676 181.202 217.998 173.447 223.275C169.139 226.19 165.278 229.667 161.225 232.841C164.975 233.338 168.108 232.994 171.217 233.143C174.292 233.199 177.325 233.871 180.138 235.117C182.951 236.364 185.487 238.161 187.597 240.403C187.988 240.887 188.273 241.446 188.435 242.047C188.598 242.647 188.633 243.275 188.539 243.89C188.384 244.597 186.836 245.253 185.805 245.483C183.683 245.927 181.531 246.207 179.366 246.322C172.737 246.665 165.697 247.586 160.085 243.317C155.412 239.721 152.235 240.108 147.838 243.56C144.001 246.543 138.975 247.799 134.924 250.63C122.899 259.016 108.509 263.326 93.8619 262.93C76.302 262.321 60.9737 254.917 46.7982 245.05C44.2732 243.157 41.8658 241.111 39.5895 238.924C37.8197 237.365 36.5369 236.755 34.2712 238.889C31.6171 241.007 28.5972 242.618 25.3618 243.643C17.3019 246.383 9.7807 242.145 2.02434 241.085C-0.354071 240.769 -0.0848432 238.944 1.81125 237.582ZM27.8609 189.222C25.0293 186.045 21.7665 183.231 18.1008 179.706C17.3512 189.432 25.3905 199.732 34.238 201.186C34.8569 201.171 35.468 201.044 36.0419 200.811C35.8887 200.194 35.6546 199.6 35.3457 199.045C32.7939 195.72 30.5001 192.289 27.7536 189.221L27.8609 189.222ZM30.7936 163.698C28.2554 174.745 31.6952 183.317 37.0414 192.225C39.0833 181.647 36.0731 172.97 30.6864 163.697L30.7936 163.698ZM68.8486 99.4967C68.7345 98.574 68.2906 97.724 67.599 97.104C67.3429 96.909 66.0949 97.5453 65.4482 98.0567C59.8399 103.047 57.5871 109.778 56.1901 116.837C55.5026 120.313 55.265 123.877 54.6994 128.385C65.1505 120.719 69.4795 111.295 68.7413 99.5175L68.8486 99.4967ZM96.8666 78.1963C95.1226 69.3769 90.1046 62.749 82.6997 57.1152C82.4207 59.4072 82.6056 61.7319 83.2433 63.9507C83.881 66.1695 84.9585 68.2368 86.4115 70.0291C88.8776 73.3321 91.7748 76.3156 94.5428 79.3627C95.1541 79.8575 95.839 80.2535 96.5726 80.536C96.7473 79.7467 96.7888 78.9337 96.6954 78.1307L96.8666 78.1963ZM104.831 80.2246C108.67 76.5228 110.997 71.5217 111.356 66.1958C109.294 67.6197 107.404 69.2801 105.727 71.1431C104.25 73.5291 103.061 76.0812 102.181 78.7465C101.775 80.0167 101.459 81.314 101.234 82.6287C102.454 81.9203 103.602 81.0931 104.66 80.159L104.831 80.2246ZM52.0588 39.9226C49.2684 41.5947 46.6732 43.5738 44.3214 45.823C43.4801 46.5909 43.3628 48.1369 42.9046 49.337L46.6343 49.6191C54.4498 48.1877 62.883 47.4048 70.2694 42.7052C71.1339 42.2432 71.9196 41.6464 72.597 40.9372C72.8349 40.638 72.1373 39.0867 71.9657 39.0856C65.0999 39.5779 58.2581 36.3969 51.8877 39.8571L52.0588 39.9226ZM72.1485 24.1991C68.089 18.5656 62.214 15.1116 56.1871 11.9358C55.4489 11.6846 54.6746 11.5562 53.8949 11.5557C53.6464 12.42 53.5391 13.3189 53.5773 14.2175C54.5613 19.8232 57.7111 24.8145 62.3438 28.1096C65.5894 30.279 69.202 32.0856 72.4687 34.2982C75.7355 36.5107 75.7248 34.8564 76.0652 31.9799C74.9336 29.25 73.5658 26.6246 71.9773 24.1335L72.1485 24.1991ZM110.703 31.4537C109.231 26.9244 107.491 22.4869 105.493 18.1648C103.369 14.4061 100.985 10.8013 98.3572 7.37685C97.7945 6.80107 97.1555 6.30536 96.4582 5.90363L95.5209 8.21768C96.1659 14.4199 98.5934 20.3013 102.509 25.1488C104.638 27.5043 106.639 29.8804 108.747 32.2143C109.11 32.5142 109.512 32.7626 109.943 32.9525C110.203 32.4601 110.722 31.7975 110.575 31.3884L110.703 31.4537ZM116.064 38.0838C118.895 37.3602 121.556 36.0855 123.895 34.3324C128.728 29.8739 129.756 23.4143 131.489 17.4533C131.848 15.071 130.372 14.4599 128.907 15.4386C125.885 17.0877 123.218 19.319 121.059 22.0042C118.563 26.4648 116.383 31.0951 114.535 35.8611C113.559 37.5519 114.238 38.609 115.936 38.0185L116.064 38.0838ZM119.382 62.0804C119.38 62.3596 119.529 62.6399 119.613 62.9197C119.613 62.7908 119.786 62.6416 119.765 62.5985C119.649 62.4171 119.522 62.2439 119.382 62.0804ZM128.506 83.6227C134.016 81.7689 138.951 78.5145 142.829 74.1776C143.395 73.5743 143.909 72.9236 144.364 72.2326C145.122 71.0775 145.774 69.8787 146.532 68.7021L141.461 66.9289C138.467 68.5661 135.657 70.5212 133.081 72.7607C130.79 75.5823 128.8 78.6367 127.145 81.8737C126.909 82.4037 126.76 82.9687 126.705 83.5465C127.295 83.6904 127.907 83.7163 128.506 83.6227ZM138.614 145.044C139.573 144.992 140.526 144.876 141.469 144.697C141.025 143.663 140.864 142.158 140.095 141.681C136.576 139.334 132.831 137.344 128.917 135.743C125.277 134.853 121.561 134.311 117.819 134.124L117.618 135.347C123.871 140.114 130.145 144.881 138.615 145.001L138.614 145.044ZM123.273 126.554C129.426 121.231 134.071 114.378 136.741 106.685C136.871 105.521 136.879 104.348 136.764 103.183C133.68 104.971 130.69 106.916 127.805 109.011C123.105 112.847 121.309 118.486 119.28 123.886C118.559 125.836 118.074 127.853 117.482 129.847C119.512 128.935 121.451 127.832 123.273 126.554ZM49.5328 128.115C45.3771 120.148 38.9266 113.617 31.0188 109.369C29.1807 108.412 27.2337 107.711 25.3305 106.883C31.0412 115.814 36.0411 125.213 45.3327 130.923C45.5934 131.13 45.8908 131.285 46.209 131.38C47.9229 131.649 49.6371 131.854 51.3513 132.08C50.818 130.698 50.2112 129.346 49.5334 128.029L49.5328 128.115ZM60.7611 218.416C63.5942 217.581 66.2311 216.184 68.5161 214.31C70.801 212.436 72.6876 210.121 74.0641 207.504C74.1942 207.29 73.2799 206.081 72.7655 206.034C70.9616 205.815 69.1316 206.068 67.4544 206.769C65.7772 207.47 64.31 208.594 63.1962 210.032C61.5318 212.454 60.0322 214.985 58.7077 217.608C59.6487 218.001 60.3101 218.521 60.7604 218.524L60.7611 218.416ZM118.602 188.416C113.977 187.333 109.264 186.572 104.573 185.704C103.792 185.595 103.004 185.54 102.215 185.538C102.192 186.462 102.347 187.382 102.669 188.248C104.009 190.339 105.872 192.042 108.074 193.187C110.275 194.332 112.737 194.879 115.215 194.775C121.326 194.986 127.439 194.854 133.615 194.894C129.678 190.143 123.955 189.654 118.602 188.416ZM127.402 177.388L126.239 178.197C127.642 183.448 130.1 187.911 135.166 190.458L136.222 189.691L127.402 177.388ZM99.3352 156.84C95.3095 152.624 89.9975 151.623 83.8903 150.896L81.0518 152.08C81.8401 152.88 82.4969 154.109 83.4599 154.416C88.4466 155.974 93.4988 157.339 98.5511 158.704C99.0396 158.738 99.5298 158.668 99.9893 158.498C99.7784 157.938 99.7187 157.229 99.3352 156.84ZM95.4118 163.259C85.8398 164.378 76.8309 167.95 71.5542 177.991C80.7943 175.151 89.7029 173.813 97.0731 168.318C98.5116 167.019 99.8274 165.589 101.004 164.047C99.1828 163.528 97.3049 163.234 95.4124 163.173L95.4118 163.259ZM150.236 151.908C145.214 159.051 145.122 166.569 149.662 177.555C152.128 169.18 152.326 160.299 150.237 151.822L150.236 151.908ZM179.956 215.004C183.838 211.678 187.486 208.049 191.176 204.486C191.634 203.831 191.986 203.108 192.22 202.344L190.336 201.816C183.618 202.61 178.795 205.565 176.289 211.693C175.309 214.071 174.478 216.515 173.583 218.936C175.819 217.816 177.951 216.5 179.956 215.004ZM169.1 189.433C168.895 188.758 168.649 188.096 168.362 187.451C167.807 187.786 167.305 188.203 166.874 188.688C163.515 194.144 161.955 199.891 164.616 206.096C165.884 208.961 167.389 211.699 169.146 215.234C171.365 206.748 171.364 197.832 169.143 189.347L169.1 189.433ZM159.251 239.66C164.287 243.538 170.204 243.727 176.169 243.315C178.807 243.332 181.444 243.349 184.082 243.366C184.546 243.316 185.001 243.203 185.435 243.031C185.172 242.535 184.851 242.072 184.479 241.65C181.107 238.429 176.603 236.671 171.944 236.757C167.827 236.73 163.728 237.047 159.631 237.256C158.985 237.382 158.357 237.587 157.761 237.867C158.202 238.496 158.717 239.069 159.294 239.574L159.251 239.66ZM53.4585 210.248C54.3938 204.948 55.3504 199.648 56.2 194.326C56.1994 193.405 56.0534 192.491 55.7673 191.616C54.7978 192.088 53.9103 192.714 53.1389 193.468C49.3082 198.814 50.0006 204.468 51.7864 210.151L53.4585 210.248ZM20.2836 213.341C19.6666 213.497 19.0976 213.803 18.6265 214.232C19.4041 216.665 19.7062 219.674 21.325 221.382C24.6833 224.623 28.2452 227.646 31.9888 230.431C30.3848 223.16 25.0328 218.441 20.2407 213.34L20.2836 213.341ZM32.6721 230.887L32.3086 230.713L32.3076 230.863C32.3076 230.863 32.5434 230.886 32.6292 230.887L32.6721 230.887ZM31.3466 236.829C23.0456 237.076 14.923 232.984 6.89096 238.023C16.3819 242.768 25.5845 242.377 31.3037 236.829L31.3466 236.829Z" fill="black" fill-opacity="0.1"/>
</g>
<defs>
<clipPath id="clip0_505_828">
<rect width="195" height="262" fill="white" transform="matrix(-0.999979 -0.00651331 -0.00651331 0.999979 196.851 1.63794)"/>
</clipPath>
</defs>
</svg>
