<?xml version="1.0" encoding="UTF-8"?>
<svg xmlns="http://www.w3.org/2000/svg" xmlns:xlink="http://www.w3.org/1999/xlink" width="300px" height="400px" viewBox="0 0 300 400" version="1.1">
<g id="surface1">
<path style="fill-rule:nonzero;fill:rgb(100%,100%,100%);fill-opacity:1;stroke-width:5;stroke-linecap:butt;stroke-linejoin:miter;stroke:rgb(0%,0%,0%);stroke-opacity:1;stroke-miterlimit:4;" d="M 89.191541 126.180263 L 654.902743 126.180263 C 664.371308 126.180263 672.045746 133.848344 672.045746 143.321142 L 672.045746 909.033756 C 672.045746 918.498674 664.371308 926.182516 654.902743 926.182516 L 89.191541 926.182516 C 79.722976 926.182516 72.048538 918.498674 72.048538 909.033756 L 72.048538 143.321142 C 72.048538 133.848344 79.722976 126.180263 89.191541 126.180263 Z M 89.191541 126.180263 " transform="matrix(0.494234,0,0,0.495663,-33.878373,-60.808471)"/>
<path style="fill-rule:evenodd;fill:rgb(0%,0%,0%);fill-opacity:1;stroke-width:1.15255;stroke-linecap:butt;stroke-linejoin:miter;stroke:rgb(0%,0%,0%);stroke-opacity:1;stroke-miterlimit:4;" d="M 261.024659 464.182633 C 129.49222 598.567124 257.428501 696.447453 361.416741 632.289341 C 361.985803 665.388969 336.038141 696.289836 320.072781 725.827314 L 432.359847 725.827314 C 415.936075 697.125208 388.478817 665.483539 387.482958 632.289341 C 493.652604 693.287227 606.571961 586.919207 488.752345 464.182633 C 427.325226 396.785486 388.929325 344.354098 374.457753 326.519703 C 361.258668 343.904889 326.095357 395.012291 261.032562 464.182633 Z M 261.024659 464.182633 " transform="matrix(0.494234,0,0,0.495663,-33.878373,-60.808471)"/>
<path style=" stroke:none;fill-rule:nonzero;fill:rgb(0%,0%,0%);fill-opacity:1;" d="M 16.480469 28.953125 L 29.132812 28.953125 L 22.804688 12.539062 Z M 6.75 41.476562 L 6.75 39.015625 L 9.757812 39.015625 L 22.039062 6.933594 L 25.917969 6.933594 L 38.214844 39.015625 L 41.597656 39.015625 L 41.597656 41.476562 L 29.070312 41.476562 L 29.070312 39.015625 L 32.90625 39.015625 L 30.023438 31.433594 L 15.523438 31.433594 L 12.640625 39.015625 L 16.4375 39.015625 L 16.4375 41.476562 Z M 6.75 41.476562 "/>
<path style=" stroke:none;fill-rule:nonzero;fill:rgb(0%,0%,0%);fill-opacity:1;" d="M 284.863281 371.085938 L 272.210938 371.085938 L 278.539062 387.503906 Z M 294.589844 358.566406 L 294.589844 361.023438 L 291.585938 361.023438 L 279.304688 393.109375 L 275.425781 393.109375 L 263.128906 361.023438 L 259.746094 361.023438 L 259.746094 358.566406 L 272.273438 358.566406 L 272.273438 361.023438 L 268.4375 361.023438 L 271.320312 368.609375 L 285.816406 368.609375 L 288.703125 361.023438 L 284.90625 361.023438 L 284.90625 358.566406 Z M 294.589844 358.566406 "/>
<path style="fill-rule:evenodd;fill:rgb(0%,0%,0%);fill-opacity:1;stroke-width:0.194575;stroke-linecap:butt;stroke-linejoin:miter;stroke:rgb(0%,0%,0%);stroke-opacity:1;stroke-miterlimit:4;" d="M 97.695862 236.89852 C 75.478719 259.587527 97.087281 276.113698 114.63337 265.285391 C 114.728214 270.872924 110.357499 276.082175 107.662356 281.078642 L 126.615294 281.078642 C 123.841115 276.22403 119.201676 270.880805 119.0357 265.285391 C 137.079718 276.003366 156.024752 257.625191 136.131281 236.89852 C 125.753797 225.518552 119.272809 216.660461 116.838487 213.657852 C 114.601756 216.589533 108.666119 225.219079 97.695862 236.89852 Z M 650.16846 815.684924 C 672.377699 792.995917 650.777041 776.469745 633.223048 787.298052 C 633.128204 781.71052 637.506823 776.501269 640.201965 771.504801 L 621.241124 771.504801 C 624.023207 776.351532 628.646838 781.702639 628.820718 787.298052 C 610.768796 776.580077 591.831666 794.958252 611.725137 815.684924 C 622.094718 827.064891 628.575705 835.90722 631.017931 838.925591 C 633.254663 835.986029 639.182395 827.356483 650.16846 815.684924 Z M 650.16846 815.684924 " transform="matrix(0.494234,0,0,0.495663,-33.878373,-60.808471)"/>
</g>
</svg>
