<?xml version="1.0" encoding="UTF-8"?>
<svg xmlns="http://www.w3.org/2000/svg" xmlns:xlink="http://www.w3.org/1999/xlink" width="300px" height="400px" viewBox="0 0 300 400" version="1.1">
<g id="surface1">
<path style="fill-rule:nonzero;fill:rgb(100%,100%,100%);fill-opacity:1;stroke-width:1;stroke-linecap:butt;stroke-linejoin:miter;stroke:rgb(0%,0%,0%);stroke-opacity:1;stroke-miterlimit:4;" d="M 59.945265 -656.638499 L 359.0544 -656.638499 C 375.591887 -656.638499 389.002814 -643.233431 389.002814 -626.695944 L 389.002814 -147.583437 C 389.002814 -131.04595 375.591887 -117.640883 359.0544 -117.640883 L 59.945265 -117.640883 C 43.407778 -117.640883 30.001539 -131.04595 30.001539 -147.583437 L 30.001539 -626.695944 C 30.001539 -643.233431 43.407778 -656.638499 59.945265 -656.638499 Z M 59.945265 -656.638499 " transform="matrix(0.833334,0,0,0.740741,-24.583333,486.770371)"/>
<path style=" stroke:none;fill-rule:nonzero;fill:rgb(0%,0%,0%);fill-opacity:1;" d="M 150 170.378906 C 146.667969 170.316406 144.445312 171.363281 142.222656 173.339844 C 139.996094 175.316406 138.890625 177.292969 138.890625 180.253906 C 138.890625 183.21875 140.15625 184.972656 142.222656 187.167969 C 144.199219 189.265625 145.558594 190.128906 146.667969 192.105469 C 147.777344 194.082031 148.886719 198.03125 148.886719 200.003906 C 148.886719 201.980469 148.886719 201.78125 148.886719 202.96875 L 146.667969 202.96875 C 144.445312 202.96875 139.996094 200.996094 138.890625 200.003906 L 135.558594 197.042969 C 133.335938 195.066406 131.109375 194.078125 127.78125 194.078125 C 124.449219 194.078125 122.222656 195.066406 120 197.042969 C 117.777344 199.019531 116.667969 200.996094 116.667969 203.957031 C 116.667969 206.917969 117.777344 208.894531 120 210.871094 C 122.222656 212.84375 124.449219 213.832031 127.78125 213.832031 C 131.109375 213.832031 133.335938 212.84375 135.558594 210.871094 L 138.890625 207.90625 C 139.996094 206.917969 144.445312 204.941406 146.667969 204.941406 L 148.886719 204.941406 C 148.832031 207.738281 148.597656 212.625 147.777344 214.816406 C 146.667969 217.78125 144.445312 220.746094 142.222656 222.71875 C 139.996094 224.699219 133.335938 228.644531 133.335938 228.644531 L 133.335938 229.636719 C 133.335938 229.636719 144.445312 227.65625 146.667969 227.65625 L 153.332031 227.65625 C 155.554688 227.65625 166.664062 229.636719 166.664062 229.636719 L 166.664062 228.644531 C 166.664062 228.644531 160.003906 224.699219 157.777344 222.71875 C 155.554688 220.746094 153.332031 217.78125 152.222656 214.816406 C 151.402344 212.625 151.167969 207.738281 151.113281 204.941406 L 153.332031 204.941406 C 155.554688 204.941406 160.003906 206.917969 161.109375 207.90625 L 164.441406 210.871094 C 166.664062 212.84375 168.890625 213.832031 172.21875 213.832031 C 175.550781 213.832031 177.777344 212.84375 180 210.871094 C 182.222656 208.894531 183.332031 206.917969 183.332031 203.957031 C 183.332031 200.996094 182.222656 199.019531 180 197.042969 C 177.777344 195.066406 175.550781 194.078125 172.21875 194.078125 C 168.890625 194.078125 166.664062 195.066406 164.441406 197.042969 L 161.109375 200.003906 C 160.003906 200.996094 155.554688 202.96875 153.332031 202.96875 L 151.113281 202.96875 C 151.113281 201.59375 151.113281 201.980469 151.113281 200.003906 C 151.113281 198.03125 152.222656 194.078125 153.332031 192.105469 C 154.441406 190.128906 155.554688 189.140625 157.777344 187.167969 C 159.988281 185.203125 161.109375 183.21875 161.109375 180.253906 C 161.109375 177.292969 160.003906 175.316406 157.777344 173.339844 C 155.554688 171.363281 153.332031 170.378906 150 170.378906 "/>
<path style=" stroke:none;fill-rule:nonzero;fill:rgb(0%,0%,0%);fill-opacity:1;" d="M 25.003906 66.667969 C 23.746094 66.644531 22.917969 67.035156 22.082031 67.777344 C 21.253906 68.519531 20.835938 69.261719 20.835938 70.371094 C 20.835938 71.480469 21.304688 72.140625 22.082031 72.964844 C 22.828125 73.75 23.332031 74.074219 23.746094 74.8125 C 24.164062 75.558594 24.585938 77.035156 24.585938 77.777344 C 24.585938 78.519531 24.585938 78.441406 24.585938 78.890625 L 23.746094 78.890625 C 22.917969 78.890625 21.253906 78.144531 20.835938 77.777344 L 19.582031 76.667969 C 18.75 75.925781 17.917969 75.558594 16.664062 75.558594 C 15.417969 75.558594 14.582031 75.925781 13.753906 76.667969 C 12.914062 77.40625 12.496094 78.144531 12.496094 79.261719 C 12.496094 80.371094 12.914062 81.109375 13.753906 81.855469 C 14.582031 82.59375 15.417969 82.964844 16.664062 82.964844 C 17.917969 82.964844 18.75 82.59375 19.582031 81.855469 L 20.835938 80.738281 C 21.253906 80.371094 22.917969 79.628906 23.746094 79.628906 L 24.585938 79.628906 C 24.5625 80.675781 24.472656 82.511719 24.164062 83.332031 C 23.746094 84.441406 22.917969 85.558594 22.082031 86.296875 C 21.253906 87.035156 18.75 88.519531 18.75 88.519531 L 18.75 88.890625 C 18.75 88.890625 22.917969 88.144531 23.746094 88.144531 L 26.25 88.144531 C 27.082031 88.144531 31.246094 88.890625 31.246094 88.890625 L 31.246094 88.519531 C 31.246094 88.519531 28.753906 87.035156 27.914062 86.296875 C 27.082031 85.558594 26.25 84.441406 25.832031 83.332031 C 25.523438 82.511719 25.433594 80.675781 25.417969 79.628906 L 26.25 79.628906 C 27.082031 79.628906 28.753906 80.371094 29.167969 80.738281 L 30.417969 81.855469 C 31.246094 82.59375 32.085938 82.964844 33.332031 82.964844 C 34.582031 82.964844 35.414062 82.59375 36.253906 81.855469 C 37.082031 81.109375 37.5 80.371094 37.5 79.261719 C 37.5 78.144531 37.082031 77.40625 36.253906 76.667969 C 35.414062 75.925781 34.582031 75.558594 33.332031 75.558594 C 32.085938 75.558594 31.246094 75.925781 30.417969 76.667969 L 29.167969 77.777344 C 28.753906 78.144531 27.082031 78.890625 26.25 78.890625 L 25.417969 78.890625 C 25.417969 78.375 25.417969 78.519531 25.417969 77.777344 C 25.417969 77.035156 25.832031 75.558594 26.25 74.8125 C 26.667969 74.074219 27.082031 73.703125 27.914062 72.964844 C 28.746094 72.222656 29.167969 71.480469 29.167969 70.371094 C 29.167969 69.261719 28.753906 68.519531 27.914062 67.777344 C 27.082031 67.035156 26.25 66.667969 25.003906 66.667969 "/>
<path style=" stroke:none;fill-rule:nonzero;fill:rgb(0%,0%,0%);fill-opacity:1;" d="M 274.996094 333.332031 C 276.253906 333.355469 277.082031 332.964844 277.917969 332.222656 C 278.746094 331.480469 279.164062 330.738281 279.164062 329.628906 C 279.164062 328.519531 278.695312 327.859375 277.917969 327.035156 C 277.171875 326.25 276.667969 325.925781 276.253906 325.1875 C 275.835938 324.441406 275.414062 322.964844 275.414062 322.222656 C 275.414062 321.480469 275.414062 321.558594 275.414062 321.109375 L 276.253906 321.109375 C 277.082031 321.109375 278.746094 321.855469 279.164062 322.222656 L 280.417969 323.332031 C 281.25 324.074219 282.082031 324.441406 283.335938 324.441406 C 284.582031 324.441406 285.417969 324.074219 286.246094 323.332031 C 287.085938 322.59375 287.503906 321.855469 287.503906 320.738281 C 287.503906 319.628906 287.085938 318.890625 286.246094 318.144531 C 285.417969 317.40625 284.582031 317.035156 283.335938 317.035156 C 282.082031 317.035156 281.25 317.40625 280.417969 318.144531 L 279.164062 319.261719 C 278.746094 319.628906 277.082031 320.371094 276.253906 320.371094 L 275.414062 320.371094 C 275.4375 319.324219 275.527344 317.488281 275.835938 316.667969 C 276.253906 315.558594 277.082031 314.441406 277.917969 313.703125 C 278.746094 312.964844 281.25 311.480469 281.25 311.480469 L 281.25 311.109375 C 281.25 311.109375 277.082031 311.855469 276.253906 311.855469 L 273.75 311.855469 C 272.917969 311.855469 268.753906 311.109375 268.753906 311.109375 L 268.753906 311.480469 C 268.753906 311.480469 271.246094 312.964844 272.085938 313.703125 C 272.917969 314.441406 273.75 315.558594 274.167969 316.667969 C 274.476562 317.488281 274.566406 319.324219 274.582031 320.371094 L 273.75 320.371094 C 272.917969 320.371094 271.246094 319.628906 270.832031 319.261719 L 269.582031 318.144531 C 268.753906 317.40625 267.914062 317.035156 266.667969 317.035156 C 265.417969 317.035156 264.585938 317.40625 263.746094 318.144531 C 262.917969 318.890625 262.5 319.628906 262.5 320.738281 C 262.5 321.855469 262.917969 322.59375 263.746094 323.332031 C 264.585938 324.074219 265.417969 324.441406 266.667969 324.441406 C 267.914062 324.441406 268.753906 324.074219 269.582031 323.332031 L 270.832031 322.222656 C 271.246094 321.855469 272.917969 321.109375 273.75 321.109375 L 274.582031 321.109375 C 274.582031 321.625 274.582031 321.480469 274.582031 322.222656 C 274.582031 322.964844 274.167969 324.441406 273.75 325.1875 C 273.332031 325.925781 272.917969 326.296875 272.085938 327.035156 C 271.253906 327.777344 270.832031 328.519531 270.832031 329.628906 C 270.832031 330.738281 271.246094 331.480469 272.085938 332.222656 C 272.917969 332.964844 273.75 333.332031 274.996094 333.332031 "/>
<path style=" stroke:none;fill-rule:nonzero;fill:rgb(0%,0%,0%);fill-opacity:1;" d="M 16.664062 22.222656 L 16.664062 25.925781 L 22.996094 25.925781 L 22.996094 59.261719 L 27.164062 59.261719 L 27.164062 25.925781 L 33.332031 25.925781 L 33.332031 22.222656 Z M 16.664062 22.222656 "/>
<path style=" stroke:none;fill-rule:nonzero;fill:rgb(0%,0%,0%);fill-opacity:1;" d="M 266.667969 377.777344 L 266.667969 374.074219 L 273 374.074219 L 273 340.738281 L 277.167969 340.738281 L 277.167969 374.074219 L 283.335938 374.074219 L 283.335938 377.777344 Z M 266.667969 377.777344 "/>
</g>
</svg>
