<?xml version="1.0" encoding="UTF-8"?>
<svg xmlns="http://www.w3.org/2000/svg" xmlns:xlink="http://www.w3.org/1999/xlink" width="300px" height="400px" viewBox="0 0 300 400" version="1.1">
<g id="surface1">
<path style="fill-rule:nonzero;fill:rgb(100%,100%,100%);fill-opacity:1;stroke-width:1;stroke-linecap:butt;stroke-linejoin:miter;stroke:rgb(0%,0%,0%);stroke-opacity:1;stroke-miterlimit:4;" d="M 60.445265 -1227.144409 L 359.5544 -1227.144409 C 376.091887 -1227.144409 389.502814 -1213.734068 389.502814 -1197.196581 L 389.502814 -718.084074 C 389.502814 -701.546587 376.091887 -688.14152 359.5544 -688.14152 L 60.445265 -688.14152 C 43.907778 -688.14152 30.501539 -701.546587 30.501539 -718.084074 L 30.501539 -1197.196581 C 30.501539 -1213.734068 43.907778 -1227.144409 60.445265 -1227.144409 Z M 60.445265 -1227.144409 " transform="matrix(0.833334,0,0,0.740741,-25,909.348148)"/>
<path style=" stroke:none;fill-rule:nonzero;fill:rgb(100%,33.333333%,33.333333%);fill-opacity:1;" d="M 16.664062 22.207031 L 16.664062 25.910156 L 22.996094 25.910156 L 22.996094 59.246094 L 27.164062 59.246094 L 27.164062 25.910156 L 33.332031 25.910156 L 33.332031 22.207031 Z M 16.664062 22.207031 "/>
<path style=" stroke:none;fill-rule:nonzero;fill:rgb(100%,33.333333%,33.333333%);fill-opacity:1;" d="M 150 170.355469 C 150 170.355469 156.667969 180.234375 164.441406 187.144531 C 172.21875 194.058594 183.332031 199.984375 183.332031 199.984375 C 183.332031 199.984375 172.222656 205.910156 164.441406 212.824219 C 156.667969 219.738281 150 229.613281 150 229.613281 C 150 229.613281 143.332031 219.738281 135.558594 212.824219 C 127.78125 205.910156 116.667969 199.984375 116.667969 199.984375 C 116.667969 199.984375 127.777344 194.058594 135.558594 187.144531 C 143.332031 180.234375 150 170.355469 150 170.355469 "/>
<path style=" stroke:none;fill-rule:nonzero;fill:rgb(100%,33.333333%,33.333333%);fill-opacity:1;" d="M 274.996094 311.09375 C 274.996094 311.09375 277.5 314.800781 280.417969 317.390625 C 283.335938 319.984375 287.503906 322.207031 287.503906 322.207031 C 287.503906 322.207031 283.335938 324.425781 280.417969 327.019531 C 277.5 329.613281 274.996094 333.316406 274.996094 333.316406 C 274.996094 333.316406 272.503906 329.613281 269.582031 327.019531 C 266.667969 324.425781 262.5 322.207031 262.5 322.207031 C 262.5 322.207031 266.667969 319.984375 269.582031 317.390625 C 272.503906 314.800781 274.996094 311.09375 274.996094 311.09375 "/>
<path style=" stroke:none;fill-rule:nonzero;fill:rgb(100%,33.333333%,33.333333%);fill-opacity:1;" d="M 25.003906 66.652344 C 25.003906 66.652344 27.496094 70.355469 30.417969 72.949219 C 33.332031 75.542969 37.5 77.761719 37.5 77.761719 C 37.5 77.761719 33.332031 79.984375 30.417969 82.578125 C 27.496094 85.171875 25.003906 88.875 25.003906 88.875 C 25.003906 88.875 22.5 85.171875 19.582031 82.578125 C 16.664062 79.984375 12.496094 77.761719 12.496094 77.761719 C 12.496094 77.761719 16.664062 75.542969 19.582031 72.949219 C 22.5 70.355469 25.003906 66.652344 25.003906 66.652344 "/>
<path style=" stroke:none;fill-rule:nonzero;fill:rgb(100%,33.333333%,33.333333%);fill-opacity:1;" d="M 266.667969 377.761719 L 266.667969 374.058594 L 273 374.058594 L 273 340.722656 L 277.167969 340.722656 L 277.167969 374.058594 L 283.335938 374.058594 L 283.335938 377.761719 Z M 266.667969 377.761719 "/>
</g>
</svg>
