<?xml version="1.0" encoding="UTF-8"?>
<svg xmlns="http://www.w3.org/2000/svg" xmlns:xlink="http://www.w3.org/1999/xlink" width="300px" height="400px" viewBox="0 0 300 400" version="1.1">
<g id="surface1">
<path style="fill-rule:nonzero;fill:rgb(100%,100%,100%);fill-opacity:1;stroke-width:1;stroke-linecap:butt;stroke-linejoin:miter;stroke:rgb(0%,0%,0%);stroke-opacity:1;stroke-miterlimit:4;" d="M 60.445265 -1797.143953 L 359.5544 -1797.143953 C 376.091887 -1797.143953 389.502814 -1783.733612 389.502814 -1767.196126 L 389.502814 -1288.088892 C 389.502814 -1271.551405 376.091887 -1258.141064 359.5544 -1258.141064 L 60.445265 -1258.141064 C 43.907778 -1258.141064 30.501539 -1271.551405 30.501539 -1288.088892 L 30.501539 -1767.196126 C 30.501539 -1783.733612 43.907778 -1797.143953 60.445265 -1797.143953 Z M 60.445265 -1797.143953 " transform="matrix(0.833334,0,0,0.740741,-25,1331.570371)"/>
<path style=" stroke:none;fill-rule:nonzero;fill:rgb(100%,33.333333%,33.333333%);fill-opacity:1;" d="M 16.664062 22.207031 L 16.664062 25.910156 L 22.996094 25.910156 L 22.996094 59.246094 L 27.164062 59.246094 L 27.164062 25.910156 L 33.332031 25.910156 L 33.332031 22.207031 Z M 16.664062 22.207031 "/>
<path style=" stroke:none;fill-rule:nonzero;fill:rgb(100%,33.333333%,33.333333%);fill-opacity:1;" d="M 266.667969 377.761719 L 266.667969 374.058594 L 273 374.058594 L 273 340.722656 L 277.167969 340.722656 L 277.167969 374.058594 L 283.335938 374.058594 L 283.335938 377.761719 Z M 266.667969 377.761719 "/>
<path style=" stroke:none;fill-rule:nonzero;fill:rgb(100%,33.333333%,33.333333%);fill-opacity:1;" d="M 150 185.171875 C 150 185.171875 151.519531 176.910156 154.441406 174.308594 C 157.371094 171.703125 162.527344 170.355469 166.664062 170.355469 C 170.808594 170.355469 175.964844 171.703125 178.886719 174.308594 C 181.816406 176.910156 183.332031 181.488281 183.332031 185.171875 C 183.332031 188.847656 181.113281 194.058594 178.886719 196.035156 C 176.667969 198.011719 174.445312 199 172.222656 200.972656 C 169.996094 202.949219 168.890625 202.949219 166.664062 204.921875 C 164.441406 206.902344 163.335938 207.886719 161.109375 209.863281 C 158.886719 211.839844 155.554688 215.785156 153.332031 219.738281 C 151.113281 223.6875 150 229.613281 150 229.613281 C 150 229.613281 148.886719 223.6875 146.667969 219.738281 C 144.445312 215.785156 141.113281 211.839844 138.890625 209.863281 C 136.664062 207.886719 135.558594 206.902344 133.335938 204.921875 C 131.109375 202.949219 130.003906 202.949219 127.777344 200.972656 C 125.554688 199 123.332031 198.011719 121.113281 196.035156 C 118.886719 194.058594 116.667969 188.847656 116.667969 185.171875 C 116.667969 181.488281 118.183594 176.910156 121.113281 174.308594 C 124.035156 171.703125 129.191406 170.355469 133.335938 170.355469 C 137.472656 170.355469 142.628906 171.703125 145.558594 174.308594 C 148.480469 176.910156 150 185.171875 150 185.171875 "/>
<path style=" stroke:none;fill-rule:nonzero;fill:rgb(100%,33.333333%,33.333333%);fill-opacity:1;" d="M 25.003906 72.207031 C 25.003906 72.207031 25.570312 69.109375 26.667969 68.136719 C 27.769531 67.15625 29.695312 66.652344 31.246094 66.652344 C 32.800781 66.652344 34.734375 67.15625 35.835938 68.136719 C 36.933594 69.109375 37.5 70.828125 37.5 72.207031 C 37.5 73.589844 36.667969 75.542969 35.835938 76.28125 C 34.996094 77.019531 34.167969 77.390625 33.332031 78.136719 C 32.503906 78.875 32.085938 78.875 31.246094 79.613281 C 30.417969 80.355469 30 80.722656 29.167969 81.46875 C 28.335938 82.207031 27.082031 83.6875 26.25 85.171875 C 25.417969 86.652344 25.003906 88.875 25.003906 88.875 C 25.003906 88.875 24.585938 86.652344 23.746094 85.171875 C 22.917969 83.6875 21.667969 82.207031 20.835938 81.46875 C 19.996094 80.722656 19.582031 80.355469 18.75 79.613281 C 17.917969 78.875 17.503906 78.875 16.664062 78.136719 C 15.832031 77.390625 15 77.019531 14.167969 76.28125 C 13.335938 75.542969 12.496094 73.589844 12.496094 72.207031 C 12.496094 70.828125 13.066406 69.109375 14.167969 68.136719 C 15.261719 67.15625 17.199219 66.652344 18.75 66.652344 C 20.300781 66.652344 22.238281 67.15625 23.332031 68.136719 C 24.433594 69.109375 25.003906 72.207031 25.003906 72.207031 "/>
<path style=" stroke:none;fill-rule:nonzero;fill:rgb(100%,33.333333%,33.333333%);fill-opacity:1;" d="M 274.996094 327.761719 C 274.996094 327.761719 275.566406 330.859375 276.667969 331.839844 C 277.761719 332.8125 279.699219 333.316406 281.25 333.316406 C 282.800781 333.316406 284.738281 332.8125 285.832031 331.839844 C 286.933594 330.859375 287.503906 329.140625 287.503906 327.761719 C 287.503906 326.386719 286.664062 324.425781 285.832031 323.6875 C 285 322.949219 284.167969 322.578125 283.335938 321.839844 C 282.496094 321.09375 282.082031 321.09375 281.25 320.355469 C 280.417969 319.613281 280.003906 319.246094 279.164062 318.503906 C 278.332031 317.761719 277.082031 316.28125 276.253906 314.800781 C 275.414062 313.316406 274.996094 311.09375 274.996094 311.09375 C 274.996094 311.09375 274.582031 313.316406 273.75 314.800781 C 272.917969 316.28125 271.664062 317.761719 270.832031 318.503906 C 270 319.246094 269.582031 319.613281 268.753906 320.355469 C 267.914062 321.09375 267.496094 321.09375 266.667969 321.839844 C 265.832031 322.578125 265.003906 322.949219 264.164062 323.6875 C 263.332031 324.425781 262.5 326.386719 262.5 327.761719 C 262.5 329.140625 263.066406 330.859375 264.164062 331.839844 C 265.265625 332.8125 267.199219 333.316406 268.753906 333.316406 C 270.304688 333.316406 272.230469 332.8125 273.332031 331.839844 C 274.429688 330.859375 274.996094 327.761719 274.996094 327.761719 "/>
</g>
</svg>
