<svg width="26" height="24" viewBox="0 0 26 24" fill="none" xmlns="http://www.w3.org/2000/svg">
<g filter="url(#filter0_d_75_5131)">
<path d="M12.5803 0.354315C8.00824 0.571815 4.40033 4.37947 4.4141 8.95652C4.41832 10.3506 4.75488 11.6664 5.34867 12.8293L4.43713 17.2539C4.38785 17.4933 4.60371 17.7029 4.84148 17.6466L9.17713 16.6194C10.2911 17.1744 11.5422 17.4947 12.8663 17.515C17.5393 17.5864 21.4357 13.876 21.5815 9.20467C21.7375 4.19736 17.6049 0.114959 12.5803 0.354315ZM17.7537 13.6838C16.484 14.9534 14.7957 15.6527 13 15.6527C11.9486 15.6527 10.9418 15.4168 10.0078 14.9516L9.40418 14.6508L6.74578 15.2805L7.30529 12.5643L7.00793 11.9817C6.52301 11.0321 6.27715 10.0055 6.27715 8.92992C6.27715 7.13414 6.97646 5.44599 8.24613 4.17621C9.50449 2.91773 11.2203 2.20723 13.0001 2.20723C14.7956 2.20723 16.4839 2.90654 17.7536 4.17621C19.0233 5.44588 19.7226 7.1342 19.7226 8.92974C19.7227 10.7096 19.0121 12.4253 17.7537 13.6838Z" fill="white"/>
<path d="M17.1665 10.7919L15.5034 10.3144C15.2849 10.2518 15.0494 10.3138 14.8901 10.4762L14.4833 10.8904C14.3118 11.0653 14.0517 11.1213 13.8247 11.0295C13.038 10.7111 11.383 9.23959 10.9606 8.50377C10.8385 8.29142 10.8587 8.02611 11.0084 7.83217L11.3634 7.37285C11.5025 7.19297 11.5318 6.95115 11.4399 6.74314L10.7402 5.16064C10.5726 4.78166 10.0883 4.67127 9.77183 4.93892C9.30771 5.33156 8.75699 5.92799 8.69013 6.58892C8.57206 7.75418 9.07187 9.22295 10.9613 10.9867C13.1444 13.0245 14.8926 13.2935 16.031 13.0178C16.6767 12.8615 17.1927 12.2347 17.5181 11.7213C17.7402 11.3711 17.5647 10.9063 17.1665 10.7919Z" fill="white"/>
</g>
<defs>
<filter id="filter0_d_75_5131" x="0.414062" y="0.344299" width="25.1719" height="25.3115" filterUnits="userSpaceOnUse" color-interpolation-filters="sRGB">
<feFlood flood-opacity="0" result="BackgroundImageFix"/>
<feColorMatrix in="SourceAlpha" type="matrix" values="0 0 0 0 0 0 0 0 0 0 0 0 0 0 0 0 0 0 127 0" result="hardAlpha"/>
<feOffset dy="4"/>
<feGaussianBlur stdDeviation="2"/>
<feComposite in2="hardAlpha" operator="out"/>
<feColorMatrix type="matrix" values="0 0 0 0 0 0 0 0 0 0 0 0 0 0 0 0 0 0 0.25 0"/>
<feBlend mode="normal" in2="BackgroundImageFix" result="effect1_dropShadow_75_5131"/>
<feBlend mode="normal" in="SourceGraphic" in2="effect1_dropShadow_75_5131" result="shape"/>
</filter>
</defs>
</svg>
